HIERARCHY
ROOT Hips
{
  OFFSET 0 89.5177 0.535
  CHANNELS 6 Xposition Yposition Zposition Zrotation Xrotation Yrotation
  JOINT Spine
  {
    OFFSET 12.0259 -0.162855 1.69034e-005
    CHANNELS 3 Zrotation Xrotation Yrotation
    JOINT Spine1
    {
      OFFSET 15.3169 -0.0121922 0
      CHANNELS 3 Zrotation Xrotation Yrotation
      JOINT Spine2
      {
        OFFSET 15.3176 -0.0121908 0
        CHANNELS 3 Zrotation Xrotation Yrotation
        JOINT Neck
        {
          OFFSET 19.9142 1.56338 0
          CHANNELS 3 Zrotation Xrotation Yrotation
          JOINT Head
          {
            OFFSET 6.92651 0 0
            CHANNELS 3 Zrotation Xrotation Yrotation
            End Site
            {
              OFFSET 20.7666 0 0
            }
          }
          JOINT LeftShoulder
          {
            OFFSET -6.20654 0.708824 7.28219
            CHANNELS 3 Zrotation Xrotation Yrotation
            JOINT LeftArm
            {
              OFFSET 14.108 0 -1.52588e-005
              CHANNELS 3 Zrotation Xrotation Yrotation
              JOINT LeftForeArm
              {
                OFFSET 28.5802 0 0
                CHANNELS 3 Zrotation Xrotation Yrotation
                JOINT LeftHand
                {
                  OFFSET 27.092 0 0
                  CHANNELS 3 Zrotation Xrotation Yrotation
                  End Site
                  {
                    OFFSET 9.55928 -0.186424 0.145352
                  }
                }
              }
            }
          }
          JOINT RightShoulder
          {
            OFFSET -6.20654 0.708866 -7.28218
            CHANNELS 3 Zrotation Xrotation Yrotation
            JOINT RightArm
            {
              OFFSET 14.108 0 1.52588e-005
              CHANNELS 3 Zrotation Xrotation Yrotation
              JOINT RightForeArm
              {
                OFFSET 28.5802 0 0
                CHANNELS 3 Zrotation Xrotation Yrotation
                JOINT RightHand
                {
                  OFFSET 27.092 0 0
                  CHANNELS 3 Zrotation Xrotation Yrotation
                  End Site
                  {
                    OFFSET 9.55929 -0.186417 -0.145354
                  }
                }
              }
            }
          }
        }
      }
    }
  }
  JOINT LeftUpLeg
  {
    OFFSET 0.005 -0.535 8.837
    CHANNELS 3 Zrotation Xrotation Yrotation
    JOINT LeftLeg
    {
      OFFSET 39.9035 0 0
      CHANNELS 3 Zrotation Xrotation Yrotation
      JOINT LeftFoot
      {
        OFFSET 39.6689 0 0
        CHANNELS 3 Zrotation Xrotation Yrotation
        JOINT LeftToe
        {
          OFFSET 10.1624 13.6296 0
          CHANNELS 3 Zrotation Xrotation Yrotation
          End Site
          {
            OFFSET 8.38147 0 0
          }
        }
      }
    }
  }
  JOINT RightUpLeg
  {
    OFFSET 0.005 -0.535 -8.837
    CHANNELS 3 Zrotation Xrotation Yrotation
    JOINT RightLeg
    {
      OFFSET 39.9035 0 0
      CHANNELS 3 Zrotation Xrotation Yrotation
      JOINT RightFoot
      {
        OFFSET 39.6689 0 0
        CHANNELS 3 Zrotation Xrotation Yrotation
        JOINT RightToe
        {
          OFFSET 10.1624 13.6296 0
          CHANNELS 3 Zrotation Xrotation Yrotation
          End Site
          {
            OFFSET 8.38147 0 0
          }
        }
      }
    }
  }
}
MOTION
Frames:	17
Frame Time:	0.0333333
231.941 89.8244 31.5872 45.3673 -80.8312 -39.9727 3.34556 -1.00149 -0.742146 6.67946 -2.04402 -1.42477 6.67946 -2.04402 -1.42478 -8.30907e-012 -9.0191e-006 -5.27751e-005 3.20202 -5.25334 0.0379151 -177.928 -8.26774 -75.8755 13.7405 -16.1509 37.1759 -27.9268 0 3.97569e-016 -61.747 -33.5556 -51.9518 -178.872 9.30288 83.0551 34.9952 44.2428 -54.6247 -10.2778 0 1.05356e-014 -47.776 30.8867 42.4503 -2.80593 3.10192 174.916 -19.9117 0 3.97569e-016 10.1446 8.13161 -17.9841 90 2.02667e-015 -0 0.0597678 -7.25359 -178.453 -16.8709 -4.34842e-016 1.16941e-015 13.8293 -3.79183 0.208831 90 -1.63997e-015 1.59028e-015 
231.944 89.8004 32.2152 45.6741 -80.8818 -39.9202 3.42089 -0.923684 -0.648561 6.83249 -1.88389 -1.24096 6.83249 -1.88389 -1.24097 -8.30907e-012 -9.0191e-006 -5.27751e-005 2.79075 -5.25772 0.234944 -177.907 -7.95698 -75.2125 13.9473 -13.3244 40.2505 -28.1179 0 -5.96354e-015 -61.0738 -33.9601 -51.4536 -178.708 8.81964 81.6345 34.9476 42.061 -55.2836 -10.3923 -6.36111e-015 1.49089e-015 -47.7084 31.0362 42.5057 -3.94982 3.959 175.423 -21.4194 -1.59028e-015 -3.97569e-016 11.1732 8.33242 -18.4521 90 1.82633e-015 -0 -0.593691 -7.46019 -178.307 -17.2373 -5.46658e-016 5.2181e-016 13.8246 -4.03032 0.263746 90 -1.2921e-015 7.95139e-016 
231.924 89.7776 32.7757 44.0331 -81.0254 -41.7659 3.49431 -0.837564 -0.596128 6.98089 -1.70938 -1.14015 6.98089 -1.70938 -1.14016 -8.30907e-012 -9.0191e-006 -5.27751e-005 2.51185 -5.01611 0.50193 -177.865 -7.77744 -74.5999 13.4683 -10.0472 42.9112 -28.1066 -6.36111e-015 -1.19271e-015 -60.7748 -34.0291 -51.1985 -178.529 8.5873 80.2414 35.003 40.1279 -56.7182 -10.7269 -6.36111e-015 -2.98177e-015 -48.283 31.5506 43.4329 -4.73638 5.31683 175.997 -22.8507 -3.18055e-015 -3.97569e-016 12.0889 8.14522 -18.0169 90 -1.59028e-015 3.97569e-016 -1.07507 -7.38531 -178.188 -17.6391 4.96962e-017 -1.30452e-015 13.8548 -4.22672 0.330097 90 7.95139e-016 -0 
231.905 89.7515 33.2511 40.8933 -81.1837 -44.9993 3.56351 -0.794313 -0.581777 7.11985 -1.62273 -1.11309 7.11985 -1.62273 -1.1131 -8.30589e-012 -9.0191e-006 -5.27751e-005 2.32283 -4.55818 0.859417 -177.868 -7.50748 -74.0985 13.2641 -6.44197 45.6121 -28.6178 -3.18055e-015 2.18663e-015 -60.7524 -34.2338 -51.3387 -178.419 8.14913 78.9834 34.7326 37.8443 -58.2648 -11.3394 -9.54166e-015 -9.93923e-015 -48.7022 32.1014 44.3121 -5.0703 6.76327 176.536 -24.205 -1.59028e-015 -1.19271e-015 13.1299 7.44565 -16.4026 90 3.60297e-015 -7.95139e-016 -1.38603 -7.05027 -178.119 -18.055 -2.98177e-016 7.57867e-016 13.9548 -4.30792 0.243072 90 4.96962e-016 7.95139e-016 
231.87 89.7169 33.6361 37.6139 -81.2298 -48.3529 3.62207 -0.768929 -0.582762 7.23715 -1.57262 -1.11581 7.23715 -1.57262 -1.11581 -8.30589e-012 -9.0191e-006 -5.27751e-005 2.36966 -4.15332 1.16213 -177.826 -7.55825 -73.904 12.7851 -3.17954 48.6897 -29.3071 4.77083e-015 -4.77083e-015 -60.064 -34.3057 -50.5819 -178.352 7.80343 78.0364 34.5361 35.2824 -60.1878 -11.8969 3.18055e-015 6.16232e-015 -48.3158 32.0195 43.7961 -5.0106 7.82145 177.072 -25.3788 -3.18055e-015 -0 13.8372 6.59146 -14.4552 90 1.63997e-015 -7.95139e-016 -1.59961 -6.7651 -178.076 -18.5386 9.93923e-017 1.49089e-015 14.1022 -4.3798 0.223874 90 -5.46658e-016 -7.95139e-016 
231.831 89.6662 33.901 35.1926 -81.121 -50.8807 3.64498 -0.753129 -0.593715 7.28295 -1.54196 -1.13837 7.28295 -1.54196 -1.13838 -8.3043e-012 -9.0191e-006 -5.27751e-005 2.56251 -4.01852 1.62045 -177.737 -7.76472 -73.6989 12.5017 -0.690728 51.7103 -30.079 1.59028e-015 -0 -59.5434 -34.3351 -50.0099 -178.212 7.72911 76.9353 33.4222 32.4751 -61.5275 -12.2771 -9.54166e-015 -6.55989e-015 -48.4378 32.1923 43.9602 -4.70185 8.49917 177.679 -26.6029 1.59028e-015 -1.19271e-015 14.5081 5.94808 -13.0039 90 2.5345e-015 1.59028e-015 -1.6282 -6.47589 -177.96 -18.8746 0 9.19379e-016 14.2389 -4.29692 0.00914916 90 -8.44835e-016 1.59028e-015 
231.743 89.6265 34.0471 34.0947 -80.8454 -52.0699 3.64664 -0.794258 -0.584709 7.28609 -1.62358 -1.11775 7.28609 -1.62358 -1.11776 -8.3043e-012 -9.0191e-006 -5.27751e-005 2.72456 -3.97497 2.02598 -177.577 -8.05575 -73.1972 12.3428 1.11724 54.3084 -30.6504 -1.59028e-015 1.78906e-015 -59.2781 -34.4085 -49.72 -178.02 7.79041 75.6918 33.1359 30.5993 -63.1216 -12.2628 3.18055e-015 4.77083e-015 -48.1418 32.4725 43.8432 -4.11273 8.70286 178.238 -27.794 -3.18055e-015 -0 14.8653 5.51525 -12.0337 90 -2.98177e-016 -0 -1.45342 -6.34177 -177.897 -19.0007 -2.48481e-016 1.14301e-015 14.2162 -4.16792 -0.18057 90 3.97569e-016 1.59028e-015 
231.623 89.5991 34.1427 34.8991 -80.5475 -51.3776 3.58314 -0.87292 -0.556985 7.15891 -1.77843 -1.05838 7.15891 -1.77843 -1.05839 -8.30748e-012 -9.0191e-006 -5.27751e-005 2.99191 -4.05246 2.14694 -177.472 -8.15208 -72.7072 11.8888 2.99879 56.4094 -31.0604 3.18055e-015 2.5842e-015 -59.3904 -34.6151 -50.0315 -177.779 8.08432 74.5841 33.2678 29.1839 -64.9418 -11.6967 9.54166e-015 6.16232e-015 -48.4507 33.009 44.6289 -3.56564 8.6138 178.707 -29.118 -1.59028e-015 -0 15.3312 4.91239 -10.6923 90 -3.03147e-015 -0 -1.32039 -6.43237 -177.855 -18.9794 2.48481e-016 1.73937e-016 14.141 -4.03415 -0.322938 90 -1.39149e-015 7.95139e-016 
231.481 89.5787 34.2114 36.7326 -80.264 -49.6784 3.48599 -0.950821 -0.521102 6.96468 -1.93105 -0.98349 6.96468 -1.93106 -0.983499 -8.30748e-012 -9.0191e-006 -5.27751e-005 3.38145 -4.2202 1.9997 -177.461 -8.08971 -72.508 11.9689 4.24397 58.4039 -31.0424 3.18055e-015 -3.97569e-016 -58.8368 -34.6072 -49.3484 -177.625 8.17533 73.7386 33.2664 27.2864 -66.3533 -11.3613 9.54166e-015 3.57812e-015 -48.2601 33.1481 44.5091 -3.03882 8.48635 179.168 -30.2995 0 1.59028e-015 15.3191 4.44029 -9.64736 90 1.19271e-015 -0 -1.17663 -6.5507 -177.794 -18.7375 1.98785e-016 -5.00068e-016 13.8617 -3.84105 -0.483572 90 -1.2424e-015 -7.95139e-016 
231.265 89.5889 34.2359 39.0901 -79.8883 -47.3449 3.39182 -1.02268 -0.502382 6.77622 -2.07278 -0.943461 6.77621 -2.07278 -0.94347 -8.30589e-012 -9.0191e-006 -5.27751e-005 3.69976 -4.49713 1.9067 -177.466 -8.05978 -72.4812 12.1208 4.7275 60.138 -30.3617 3.18055e-015 3.97569e-016 -58.6455 -34.7802 -49.3183 -177.447 8.36198 72.9542 32.4134 25.1761 -67.0483 -11.2442 9.54166e-015 1.19271e-015 -47.8872 33.3078 44.3303 -1.94194 7.76069 179.229 -29.9841 -1.59028e-015 -0 15.2866 4.26174 -9.25456 90 4.96962e-016 1.59028e-015 -0.963772 -6.80531 -177.905 -18.3994 -3.97569e-016 -1.73937e-016 13.6115 -3.63728 -0.633635 90 1.59028e-015 7.95139e-016 
230.994 89.6231 34.238 41.8623 -79.6251 -44.5428 3.26316 -1.07739 -0.495419 6.51865 -2.18073 -0.928806 6.51865 -2.18073 -0.928815 -8.30907e-012 -9.0191e-006 -5.27751e-005 3.79068 -4.77327 1.92087 -177.518 -7.90756 -72.5123 12.0562 5.06134 61.3283 -29.6401 6.36111e-015 -3.77691e-015 -59.0214 -35.5541 -50.344 -177.326 8.41671 72.3042 31.9136 23.3216 -67.6415 -11.1738 0 2.5842e-015 -47.7078 33.6524 44.3242 -0.248205 6.94084 179.043 -27.2026 3.18055e-015 7.95139e-016 13.672 4.86789 -10.5924 90 0 -3.18055e-015 -0.931278 -7.16095 -178.146 -18.12 0 -1.15544e-015 13.4379 -3.55075 -0.580415 90 -1.2921e-015 -0 
230.681 89.6458 34.2483 45.091 -79.2797 -41.3344 3.13275 -1.16918 -0.47085 6.25779 -2.36183 -0.87722 6.25779 -2.36184 -0.877229 -8.3043e-012 -9.0191e-006 -5.27751e-005 3.78993 -4.83236 1.938 -177.561 -7.83401 -72.6432 11.6781 5.28928 62.1385 -29.1142 0 -2.38542e-015 -59.0088 -36.1363 -50.7917 -177.251 8.47144 71.9447 31.79 22.0267 -68.3075 -10.8417 -1.90833e-014 -9.93923e-015 -47.4746 33.6892 44.1016 1.72363 6.05493 178.759 -23.2869 0 1.59028e-015 13.6408 5.47737 -11.9507 90 -2.03754e-015 3.18055e-015 -0.966165 -7.67826 -178.389 -17.9209 -2.98177e-016 2.73329e-016 13.3498 -3.49856 -0.490428 90 2.48481e-016 3.18055e-015 
230.335 89.6496 34.3141 48.5125 -78.7447 -37.9528 3.02196 -1.31088 -0.428143 6.03644 -2.64201 -0.786724 6.03644 -2.64201 -0.786733 -8.30589e-012 -9.0191e-006 -5.27751e-005 3.75216 -4.87134 1.9523 -177.615 -7.68176 -72.6937 11.0126 5.66158 62.4132 -29.1794 3.18055e-015 -4.17448e-015 -58.4302 -36.4058 -50.3161 -177.169 8.6185 71.7352 30.8588 20.9184 -68.4895 -10.6797 -3.18055e-015 -2.38542e-015 -47.0589 33.8131 43.8677 3.31107 6.12383 178.506 -20.0877 3.18055e-015 7.95139e-016 13.9501 5.83565 -12.7555 90 -3.60297e-016 -1.59028e-015 -0.937295 -8.16209 -178.614 -17.6136 1.98785e-016 -1.71452e-015 13.0824 -3.27926 -0.572348 90 1.49089e-016 -7.95139e-016 
229.958 89.7262 34.4476 51.9761 -78.0145 -34.1171 2.94091 -1.51464 -0.450348 5.87294 -3.04988 -0.822636 5.87294 -3.04988 -0.822645 -8.31066e-012 -9.0191e-006 -5.27751e-005 3.52791 -4.91975 1.98705 -177.628 -7.61868 -72.6483 10.1912 5.86638 62.2549 -29.8324 1.59028e-015 5.1684e-015 -57.9632 -36.485 -49.8232 -177.117 8.76374 71.7116 30.1705 20.287 -68.7599 -10.8004 -6.36111e-015 1.39149e-015 -46.7794 34.1565 43.8445 4.47697 5.46789 177.731 -17.4335 -3.18055e-015 -0 13.1627 5.86257 -12.818 90 -1.16786e-015 -0 -0.924421 -8.75332 -179.289 -17.2222 0 6.4605e-016 12.708 -3.03994 -0.575637 90 3.97569e-016 -1.59028e-015 
229.592 89.8302 34.6303 54.8584 -77.2777 -30.7525 2.88639 -1.69083 -0.504531 5.76158 -3.4044 -0.923674 5.76158 -3.4044 -0.923683 -8.30589e-012 -9.0191e-006 -5.27751e-005 3.18748 -5.11012 2.17125 -177.674 -7.5325 -72.7852 9.58956 5.67714 62.0215 -30.7123 1.59028e-015 -1.59028e-015 -58.0987 -36.5557 -50.0259 -177.094 8.86138 71.762 29.389 19.8385 -68.9053 -11.0121 -9.54166e-015 -3.18055e-015 -46.932 34.2487 44.0271 4.88456 4.62343 177.005 -16.0769 -4.77083e-015 -1.19271e-015 12.3412 6.02038 -13.1728 90 -9.93923e-016 -4.77083e-015 -0.880306 -9.28491 179.951 -16.6676 -5.96354e-016 1.63997e-015 12.1929 -2.74598 -0.600629 90 -1.49089e-016 7.95139e-016 
229.241 89.8993 34.7796 55.8978 -76.6019 -29.5265 2.89974 -1.78171 -0.522605 5.78737 -3.58705 -0.954879 5.78737 -3.58705 -0.954888 -8.31066e-012 -9.0191e-006 -5.27751e-005 2.87346 -5.46541 2.44476 -177.799 -7.29401 -73.1547 9.40431 5.23486 61.6735 -31.8906 0 -0 -58.406 -36.5127 -50.3519 -177.156 8.79474 72.0009 28.8756 19.3663 -69.1182 -11.4283 0 -7.95139e-016 -46.8064 34.3649 43.8925 5.32515 4.1485 176.678 -15.2879 -3.18055e-015 -0 11.9669 6.27435 -13.7449 90 -4.27387e-015 1.59028e-015 -0.609763 -9.81839 179.489 -16.2894 -7.95139e-016 1.83876e-015 11.842 -2.66311 -0.386708 90 6.95746e-016 -7.95139e-016 
228.902 89.9202 34.9301 55.1546 -76.2271 -30.2599 2.98479 -1.74925 -0.539731 5.95718 -3.5237 -0.988119 5.95718 -3.5237 -0.988128 -8.30748e-012 -9.0191e-006 -5.27751e-005 2.62034 -5.89451 2.7542 -177.922 -7.02319 -73.47 8.8694 4.81543 60.8291 -33.5458 -1.59028e-015 -1.59028e-015 -58.6953 -36.8137 -50.8646 -177.215 8.71581 72.2045 28.035 19.1067 -69.2077 -11.6693 3.18055e-015 1.19271e-015 -46.8874 34.5402 44.0535 5.87568 4.21357 176.492 -14.7526 3.18055e-015 7.95139e-016 11.7764 6.42343 -14.0819 90 -1.49089e-015 -1.59028e-015 -0.373833 -10.2325 179.207 -16.3203 -3.97569e-016 9.44227e-016 11.7456 -2.79107 -0.0951323 90 -9.93923e-016 7.95139e-016 
